<?xml version="1.0" standalone="no"?>
<!DOCTYPE svg PUBLIC "-//W3C//DTD SVG 20010904//EN"
 "http://www.w3.org/TR/2001/REC-SVG-20010904/DTD/svg10.dtd">
<svg version="1.0" xmlns="http://www.w3.org/2000/svg"
 width="512.000000pt" height="512.000000pt" viewBox="0 0 512.000000 512.000000"
 preserveAspectRatio="xMidYMid meet">
<metadata>
Created by potrace 1.14, written by Peter Selinger 2001-2017
</metadata>
<g transform="translate(0.000000,512.000000) scale(0.100000,-0.100000)"
fill="#000000" stroke="none">
<path d="M475 4809 c-22 -5 -51 -11 -65 -13 -14 -3 -58 -22 -99 -42 -141 -70
-259 -219 -296 -375 -22 -95 -22 -3541 0 -3636 48 -202 206 -366 410 -424 42
-12 372 -14 2140 -14 1959 0 2093 1 2144 17 195 63 344 219 395 413 14 53 16
253 16 1821 0 1691 -1 1763 -19 1830 -26 95 -42 130 -95 201 -81 111 -203 189
-339 217 -55 12 -405 14 -2109 14 -1124 -1 -2061 -5 -2083 -9z m4170 -173
c121 -32 214 -109 267 -221 l33 -70 3 -356 3 -355 -2391 0 -2391 0 3 355 3
356 32 67 c51 109 141 187 257 223 62 19 4109 21 4181 1z m305 -2491 c0 -1458
3 -1384 -63 -1488 -54 -84 -119 -134 -222 -169 -46 -15 -200 -17 -2100 -17
-2201 -1 -2082 -3 -2183 48 -58 30 -105 73 -146 135 -69 105 -66 27 -66 1487
0 876 3 1318 10 1321 6 2 1081 3 2390 3 l2380 0 0 -1320z"/>
<path d="M511 4378 c-139 -67 -193 -219 -125 -355 124 -247 487 -167 500 110
7 144 -109 266 -258 271 -46 2 -70 -3 -117 -26z m179 -174 c68 -63 3 -176 -90
-158 -86 18 -98 144 -18 179 40 17 75 10 108 -21z"/>
<path d="M1403 4399 c-87 -16 -162 -72 -200 -148 -25 -50 -25 -182 1 -231 87
-166 300 -200 427 -69 131 135 93 348 -76 425 -61 27 -97 33 -152 23z m111
-200 c37 -43 35 -91 -4 -131 -28 -27 -36 -30 -73 -25 -123 17 -115 187 8 187
36 0 48 -5 69 -31z"/>
<path d="M2185 4388 c-196 -73 -248 -314 -97 -450 56 -50 117 -71 194 -66 72
5 121 25 167 70 167 163 66 439 -166 453 -37 3 -81 0 -98 -7z m146 -187 c50
-51 39 -123 -24 -153 -67 -31 -132 13 -132 89 0 37 5 49 28 69 40 34 90 32
128 -5z"/>
<path d="M2657 2950 c-24 -19 -38 -61 -63 -185 -2 -11 -8 -42 -14 -70 -6 -27
-12 -61 -15 -74 -2 -14 -16 -77 -30 -140 -13 -64 -27 -127 -29 -141 -3 -14
-16 -77 -30 -140 -14 -63 -27 -126 -30 -140 -9 -46 -105 -503 -135 -646 -30
-140 -31 -174 -4 -206 32 -37 98 -30 127 14 8 13 24 66 35 118 11 52 43 205
71 340 28 135 60 288 71 340 11 52 23 106 25 120 3 14 19 86 35 160 16 74 31
146 34 159 2 14 9 47 15 75 6 28 12 60 14 71 3 11 14 63 25 115 39 182 38 205
-8 233 -38 22 -63 21 -94 -3z"/>
<path d="M1938 2588 c-29 -23 -55 -44 -58 -47 -3 -3 -48 -42 -100 -86 -52 -44
-97 -82 -100 -85 -3 -3 -34 -30 -70 -60 -199 -169 -220 -190 -220 -228 0 -34
27 -65 119 -142 30 -25 70 -59 90 -76 276 -237 363 -309 389 -323 35 -19 90 3
107 42 19 45 3 78 -63 135 -32 27 -138 117 -237 202 -99 84 -181 156 -183 160
-1 4 73 71 165 150 92 78 192 163 222 189 30 25 60 51 67 56 65 50 33 155 -47
155 -17 0 -48 -16 -81 -42z"/>
<path d="M3053 2615 c-11 -8 -26 -28 -31 -44 -16 -44 8 -76 133 -181 61 -51
112 -96 115 -99 3 -4 18 -17 34 -29 30 -23 127 -106 181 -155 29 -26 29 -28
11 -42 -10 -7 -32 -27 -50 -42 -17 -15 -117 -101 -221 -189 -105 -89 -196
-172 -201 -185 -24 -54 17 -113 76 -112 33 1 52 13 137 84 54 46 103 88 109
94 6 5 35 30 64 55 290 243 309 262 316 296 3 18 1 41 -5 52 -10 19 -514 456
-571 495 -30 21 -69 22 -97 2z"/>
</g>
</svg>
